Title                            : The Imaginarium of Doctor Parnassus
Year                             : 2009
Genre                            : Adventure | Fantasy | Mystery
iMDB URL                         : http://www.imdb.com/title/tt1054606/
Awards                           : Nominated for 2 Oscars. Another 2 wins & 10 nominations

Complete name                    : The.Imaginarium.of.Doctor.Parnassus.2009.BRRIP.H264-ZEKTORM.mp4
Format                           : MPEG-4
Format profile                   : Base Media
Codec ID                         : isom
File size                        : 1.66 GiB
Duration                         : 2h 2mn
Overall bit rate                 : 1940 Kbps
Subtitles                        : English (Format: srt)

Video
ID                               : 1
Format                           : AVC
Format/Info                      : Advanced Video Codec
Format profile                   : High@L3.0
Format settings, CABAC           : Yes
Codec ID                         : avc1
Codec ID/Info                    : Advanced Video Coding
Duration                         : 2h 2mn
Bit rate mode                    : Variable
Bit rate                         : 1628 Kbps
Width                            : 1280 pixels
Height                           : 688 pixels
Display aspect ratio             : 1.860
Frame rate mode                  : Constant
Frame rate                       : 23.976 fps
Resolution                       : 24 bits
Colorimetry                      : 4:2:0
Scan type                        : Progressive
Bits/(Pixel*Frame)               : 0.077
Stream size                      : 1.39 GiB (84%)
Title                            : Video
Writing library                  : x264

Audio #1
ID                               : 2
Format                           : AAC
Format/Info                      : Advanced Audio Codec
Format version                   : Version 4
Format profile                   : LC
Format settings, SBR             : Yes
Format settings, PS              : No
Codec ID                         : 40
Duration                         : 2h 2mn
Bit rate mode                    : Variable
Bit rate                         : 226 Kbps
Maximum bit rate                 : 259 Kbps
Channel(s)                       : 6 channels
Channel positions                : Front: L C R, Rear: L R, LFE
Sampling rate                    : 48.0 KHz
Resolution                       : 16 bits
Stream size                      : 198 MiB (12%)
Title                            : English
Language                         : English

Audio #2
ID                               : 3
Format                           : AAC
Format/Info                      : Advanced Audio Codec
Format version                   : Version 4
Format profile                   : LC
Format settings, SBR             : Yes
Format settings, PS              : No
Codec ID                         : 40
Duration                         : 2h 2mn
Bit rate mode                    : Variable
Bit rate                         : 82.5 Kbps
Maximum bit rate                 : 110 Kbps
Channel(s)                       : 2 channels
Channel positions                : L R
Sampling rate                    : 48.0 KHz
Resolution                       : 16 bits
Stream size                      : 72.3 MiB (4%)
Title                            : English
Language                         : English
